<svg xmlns="http://www.w3.org/2000/svg" xmlns:xlink="http://www.w3.org/1999/xlink" width="500" zoomAndPan="magnify" viewBox="0 0 375 374.999991" height="500" preserveAspectRatio="xMidYMid meet" version="1.0"><defs><g/><clipPath id="4f633df6b3"><path d="M 174 124.3125 L 201 124.3125 L 201 161 L 174 161 Z M 174 124.3125 " clip-rule="nonzero"/></clipPath><clipPath id="9799ad7cb9"><path d="M 151.25 147 L 188 147 L 188 175 L 151.25 175 Z M 151.25 147 " clip-rule="nonzero"/></clipPath></defs><path fill="#a6a6a6" d="M 195.390625 196.765625 L 179.582031 196.765625 C 176.53125 196.765625 174.035156 194.269531 174.035156 191.21875 L 174.035156 183.542969 L 177.730469 183.542969 L 177.730469 191.21875 C 177.730469 192.238281 178.5625 193.070312 179.582031 193.070312 L 195.390625 193.070312 C 196.410156 193.070312 197.242188 192.238281 197.242188 191.21875 L 197.242188 160.558594 L 200.941406 160.558594 L 200.941406 191.21875 C 200.941406 194.269531 198.460938 196.765625 195.390625 196.765625 Z M 195.390625 196.765625 " fill-opacity="1" fill-rule="nonzero"/><g clip-path="url(#4f633df6b3)"><path fill="#007aff" d="M 177.730469 160.558594 L 174.035156 160.558594 L 174.035156 129.898438 C 174.035156 126.84375 176.53125 124.347656 179.582031 124.347656 L 195.390625 124.347656 C 198.445312 124.347656 200.941406 126.84375 200.941406 129.898438 L 200.941406 137.570312 L 197.242188 137.570312 L 197.242188 129.898438 C 197.242188 128.878906 196.410156 128.046875 195.390625 128.046875 L 179.582031 128.046875 C 178.5625 128.046875 177.730469 128.878906 177.730469 129.898438 Z M 177.730469 160.558594 " fill-opacity="1" fill-rule="nonzero"/></g><g clip-path="url(#9799ad7cb9)"><path fill="#007aff" d="M 187.496094 174.019531 L 156.835938 174.019531 C 153.785156 174.019531 151.285156 171.523438 151.285156 168.472656 L 151.285156 152.660156 C 151.285156 149.609375 153.785156 147.113281 156.835938 147.113281 L 164.507812 147.113281 L 164.507812 150.8125 L 156.835938 150.8125 C 155.816406 150.8125 154.984375 151.644531 154.984375 152.660156 L 154.984375 168.472656 C 154.984375 169.488281 155.816406 170.324219 156.835938 170.324219 L 187.496094 170.324219 Z M 187.496094 174.019531 " fill-opacity="1" fill-rule="nonzero"/></g><path fill="#a6a6a6" d="M 218.15625 174.019531 L 210.484375 174.019531 L 210.484375 170.324219 L 218.15625 170.324219 C 219.175781 170.324219 220.007812 169.488281 220.007812 168.472656 L 220.007812 152.660156 C 220.007812 151.644531 219.175781 150.8125 218.15625 150.8125 L 187.496094 150.8125 L 187.496094 147.113281 L 218.15625 147.113281 C 221.207031 147.113281 223.707031 149.609375 223.707031 152.660156 L 223.707031 168.472656 C 223.707031 171.523438 221.207031 174.019531 218.15625 174.019531 Z M 218.15625 174.019531 " fill-opacity="1" fill-rule="nonzero"/><g fill="#007aff" fill-opacity="1"><g transform="translate(69.820001, 228.662738)"><g><path d="M 9.109375 -19.9375 C 11.671875 -19.9375 13.976562 -19.257812 16.03125 -17.90625 L 14.65625 -14.953125 C 12.632812 -16.179688 10.703125 -16.796875 8.859375 -16.796875 C 7.859375 -16.796875 7.066406 -16.613281 6.484375 -16.25 C 5.910156 -15.894531 5.625 -15.390625 5.625 -14.734375 C 5.625 -14.078125 5.890625 -13.515625 6.421875 -13.046875 C 6.953125 -12.585938 7.613281 -12.25 8.40625 -12.03125 C 9.195312 -11.8125 10.050781 -11.535156 10.96875 -11.203125 C 11.894531 -10.878906 12.753906 -10.53125 13.546875 -10.15625 C 14.335938 -9.789062 14.992188 -9.21875 15.515625 -8.4375 C 16.035156 -7.65625 16.296875 -6.707031 16.296875 -5.59375 C 16.296875 -3.863281 15.597656 -2.476562 14.203125 -1.4375 C 12.816406 -0.40625 11.023438 0.109375 8.828125 0.109375 C 7.316406 0.109375 5.851562 -0.171875 4.4375 -0.734375 C 3.019531 -1.296875 1.785156 -2.0625 0.734375 -3.03125 L 2.171875 -5.90625 C 3.171875 -4.988281 4.269531 -4.28125 5.46875 -3.78125 C 6.664062 -3.28125 7.800781 -3.03125 8.875 -3.03125 C 10.050781 -3.03125 10.960938 -3.238281 11.609375 -3.65625 C 12.253906 -4.082031 12.578125 -4.675781 12.578125 -5.4375 C 12.578125 -6.113281 12.3125 -6.679688 11.78125 -7.140625 C 11.257812 -7.597656 10.601562 -7.9375 9.8125 -8.15625 C 9.019531 -8.375 8.160156 -8.640625 7.234375 -8.953125 C 6.316406 -9.265625 5.460938 -9.59375 4.671875 -9.9375 C 3.878906 -10.289062 3.21875 -10.851562 2.6875 -11.625 C 2.15625 -12.394531 1.890625 -13.328125 1.890625 -14.421875 C 1.890625 -16.097656 2.550781 -17.4375 3.875 -18.4375 C 5.195312 -19.4375 6.941406 -19.9375 9.109375 -19.9375 Z M 9.109375 -19.9375 "/></g></g></g><g fill="#007aff" fill-opacity="1"><g transform="translate(91.642803, 228.662738)"><g><path d="M 15.390625 -4.46875 L 5.40625 -4.46875 L 3.5 0 L 0.03125 0 L 8.765625 -19.796875 L 12.1875 -19.796875 L 20.84375 0 L 17.28125 0 Z M 14.109375 -7.4375 L 10.375 -16.234375 L 6.640625 -7.4375 Z M 14.109375 -7.4375 "/></g></g></g><g fill="#007aff" fill-opacity="1"><g transform="translate(116.744416, 228.662738)"><g><path d="M 23.53125 0 L 20.453125 0 L 20.421875 -14.796875 L 14.171875 -2.0625 L 11.984375 -2.0625 L 5.734375 -14.796875 L 5.734375 0 L 2.609375 0 L 2.609375 -19.796875 L 6.5625 -19.796875 L 13.09375 -6.640625 L 19.59375 -19.796875 L 23.53125 -19.796875 Z M 23.53125 0 "/></g></g></g><g fill="#007aff" fill-opacity="1"><g transform="translate(147.131711, 228.662738)"><g><path d="M 15.390625 -4.46875 L 5.40625 -4.46875 L 3.5 0 L 0.03125 0 L 8.765625 -19.796875 L 12.1875 -19.796875 L 20.84375 0 L 17.28125 0 Z M 14.109375 -7.4375 L 10.375 -16.234375 L 6.640625 -7.4375 Z M 14.109375 -7.4375 "/></g></g></g><g fill="#007aff" fill-opacity="1"><g transform="translate(172.233323, 228.662738)"><g><path d="M 16 5.765625 L 0 5.765625 L 0 3.796875 L 16 3.796875 Z M 16 5.765625 "/></g></g></g><g fill="#007aff" fill-opacity="1"><g transform="translate(192.473251, 228.662738)"><g><path d="M 9.109375 -19.9375 C 11.671875 -19.9375 13.976562 -19.257812 16.03125 -17.90625 L 14.65625 -14.953125 C 12.632812 -16.179688 10.703125 -16.796875 8.859375 -16.796875 C 7.859375 -16.796875 7.066406 -16.613281 6.484375 -16.25 C 5.910156 -15.894531 5.625 -15.390625 5.625 -14.734375 C 5.625 -14.078125 5.890625 -13.515625 6.421875 -13.046875 C 6.953125 -12.585938 7.613281 -12.25 8.40625 -12.03125 C 9.195312 -11.8125 10.050781 -11.535156 10.96875 -11.203125 C 11.894531 -10.878906 12.753906 -10.53125 13.546875 -10.15625 C 14.335938 -9.789062 14.992188 -9.21875 15.515625 -8.4375 C 16.035156 -7.65625 16.296875 -6.707031 16.296875 -5.59375 C 16.296875 -3.863281 15.597656 -2.476562 14.203125 -1.4375 C 12.816406 -0.40625 11.023438 0.109375 8.828125 0.109375 C 7.316406 0.109375 5.851562 -0.171875 4.4375 -0.734375 C 3.019531 -1.296875 1.785156 -2.0625 0.734375 -3.03125 L 2.171875 -5.90625 C 3.171875 -4.988281 4.269531 -4.28125 5.46875 -3.78125 C 6.664062 -3.28125 7.800781 -3.03125 8.875 -3.03125 C 10.050781 -3.03125 10.960938 -3.238281 11.609375 -3.65625 C 12.253906 -4.082031 12.578125 -4.675781 12.578125 -5.4375 C 12.578125 -6.113281 12.3125 -6.679688 11.78125 -7.140625 C 11.257812 -7.597656 10.601562 -7.9375 9.8125 -8.15625 C 9.019531 -8.375 8.160156 -8.640625 7.234375 -8.953125 C 6.316406 -9.265625 5.460938 -9.59375 4.671875 -9.9375 C 3.878906 -10.289062 3.21875 -10.851562 2.6875 -11.625 C 2.15625 -12.394531 1.890625 -13.328125 1.890625 -14.421875 C 1.890625 -16.097656 2.550781 -17.4375 3.875 -18.4375 C 5.195312 -19.4375 6.941406 -19.9375 9.109375 -19.9375 Z M 9.109375 -19.9375 "/></g></g></g><g fill="#007aff" fill-opacity="1"><g transform="translate(214.296056, 228.662738)"><g><path d="M 15.390625 -4.46875 L 5.40625 -4.46875 L 3.5 0 L 0.03125 0 L 8.765625 -19.796875 L 12.1875 -19.796875 L 20.84375 0 L 17.28125 0 Z M 14.109375 -7.4375 L 10.375 -16.234375 L 6.640625 -7.4375 Z M 14.109375 -7.4375 "/></g></g></g><g fill="#007aff" fill-opacity="1"><g transform="translate(239.397674, 228.662738)"><g><path d="M 19.765625 0 L 16.484375 0 L 5.9375 -14.203125 L 5.9375 0 L 2.609375 0 L 2.609375 -19.796875 L 5.875 -19.796875 L 16.484375 -5.578125 L 16.484375 -19.796875 L 19.765625 -19.796875 Z M 19.765625 0 "/></g></g></g><g fill="#007aff" fill-opacity="1"><g transform="translate(266.025625, 228.662738)"><g><path d="M 16.125 -16.796875 L 9.84375 -16.796875 L 9.84375 0 L 6.5 0 L 6.5 -16.796875 L 0.25 -16.796875 L 0.25 -19.796875 L 16.125 -19.796875 Z M 16.125 -16.796875 "/></g></g></g><g fill="#007aff" fill-opacity="1"><g transform="translate(286.633, 228.662738)"><g><path d="M 16.75 -16.796875 L 5.9375 -16.796875 L 5.9375 -11.453125 L 15.609375 -11.453125 L 15.609375 -8.453125 L 5.9375 -8.453125 L 5.9375 -3 L 17.078125 -3 L 17.078125 0 L 2.609375 0 L 2.609375 -19.796875 L 16.75 -19.796875 Z M 16.75 -16.796875 "/></g></g></g><g fill="#a6a6a6" fill-opacity="1"><g transform="translate(174.572491, 248.687928)"><g><path d="M 5.4375 -1.578125 L 1.90625 -1.578125 L 1.234375 0 L 0.015625 0 L 3.09375 -7 L 4.3125 -7 L 7.375 0 L 6.109375 0 Z M 4.984375 -2.625 L 3.671875 -5.734375 L 2.34375 -2.625 Z M 4.984375 -2.625 "/></g></g></g><g fill="#a6a6a6" fill-opacity="1"><g transform="translate(184.449575, 248.687928)"><g><path d="M 0.921875 -7 L 3.703125 -7 C 4.585938 -7 5.269531 -6.789062 5.75 -6.375 C 6.238281 -5.957031 6.484375 -5.367188 6.484375 -4.609375 C 6.484375 -3.816406 6.238281 -3.203125 5.75 -2.765625 C 5.269531 -2.328125 4.585938 -2.109375 3.703125 -2.109375 L 2.09375 -2.109375 L 2.09375 0 L 0.921875 0 Z M 2.09375 -5.9375 L 2.09375 -3.171875 L 3.65625 -3.171875 C 4.78125 -3.171875 5.34375 -3.640625 5.34375 -4.578125 C 5.34375 -5.484375 4.78125 -5.9375 3.65625 -5.9375 Z M 2.09375 -5.9375 "/></g></g></g><g fill="#a6a6a6" fill-opacity="1"><g transform="translate(193.676908, 248.687928)"><g><path d="M 0.921875 -7 L 3.703125 -7 C 4.585938 -7 5.269531 -6.789062 5.75 -6.375 C 6.238281 -5.957031 6.484375 -5.367188 6.484375 -4.609375 C 6.484375 -3.816406 6.238281 -3.203125 5.75 -2.765625 C 5.269531 -2.328125 4.585938 -2.109375 3.703125 -2.109375 L 2.09375 -2.109375 L 2.09375 0 L 0.921875 0 Z M 2.09375 -5.9375 L 2.09375 -3.171875 L 3.65625 -3.171875 C 4.78125 -3.171875 5.34375 -3.640625 5.34375 -4.578125 C 5.34375 -5.484375 4.78125 -5.9375 3.65625 -5.9375 Z M 2.09375 -5.9375 "/></g></g></g></svg>